<svg
  width="32"
  height="32"
  viewBox="0 0 24 24"
  fill="none"
  xmlns="http://www.w3.org/2000/svg"
>
  <!-- Cloche (food dome) -->
  <path
    d="M5 14H19C19 11.5 16.5 9 14 9H10C7.5 9 5 11.5 5 14Z"
    stroke="black"
    stroke-width="2"
    stroke-linecap="round"
    stroke-linejoin="round"
  />
  <!-- Steam Lines -->
  <path
    d="M9 7C9 6.5 9.5 6 10 6C10.5 6 11 6.5 11 7M13 7C13 6.5 13.5 6 14 6C14.5 6 15 6.5 15 7"
    stroke="black"
    stroke-width="2"
    stroke-linecap="round"
  />
  <!-- Waves (Fleet/Motion) -->
  <path
    d="M3 18C5 20 9 20 12 20C15 20 19 20 21 18"
    stroke="black"
    stroke-width="2"
    stroke-linecap="round"
    stroke-linejoin="round"
  />
</svg>
